<?xml version="1.0" encoding="UTF-8" standalone="no"?>
<!-- Generator: Adobe Illustrator 18.0.0, SVG Export Plug-In . SVG Version: 6.00 Build 0)  -->

<svg
   version="1.1"
   id="Layer_1"
   x="0px"
   y="0px"
   viewBox="0 0 750 203.98969"
   enable-background="new 0 0 800 250"
   xml:space="preserve"
   sodipodi:docname="logo-white.svg"
   width="750"
   height="203.98969"
   inkscape:version="1.1.2 (b8e25be8, 2022-02-05)"
   xmlns:inkscape="http://www.inkscape.org/namespaces/inkscape"
   xmlns:sodipodi="http://sodipodi.sourceforge.net/DTD/sodipodi-0.dtd"
   xmlns="http://www.w3.org/2000/svg"
   xmlns:svg="http://www.w3.org/2000/svg"><defs
   id="defs497" /><sodipodi:namedview
   id="namedview495"
   pagecolor="#000000"
   bordercolor="#666666"
   borderopacity="1.0"
   inkscape:pageshadow="2"
   inkscape:pageopacity="0.0"
   inkscape:pagecheckerboard="0"
   showgrid="false"
   fit-margin-top="0"
   fit-margin-left="0"
   fit-margin-right="0"
   fit-margin-bottom="0"
   inkscape:zoom="1.35375"
   inkscape:cx="154.01662"
   inkscape:cy="102.3084"
   inkscape:window-width="1296"
   inkscape:window-height="1027"
   inkscape:window-x="0"
   inkscape:window-y="25"
   inkscape:window-maximized="0"
   inkscape:current-layer="Layer_1" />
<g
   id="g492"
   transform="translate(-25,-22.97351)">
	<g
   id="g460">
		<polygon
   fill="#000000"
   points="32.9,149.5 25,149.5 25,161.5 53.7,161.5 53.7,149.5 45.8,149.5 45.8,90.9 53.7,90.9 53.7,78.9 25,78.9 25,90.9 32.9,90.9 "
   id="polygon430" />
		<path
   fill="#000000"
   d="m 115.8,148.4 v -24.9 c 0,-15.6 -6.8,-23.2 -20.9,-23.2 -9.8,0 -16.8,5 -20.5,10.3 v -1.5 c 0,-3.4 -1.5,-7.5 -8.4,-7.5 H 54.3 v 11.6 H 60 c 1,0 1.4,0.4 1.4,1.4 v 46.7 h 13.2 v -28.1 c 0,-3.2 0.3,-5.5 1,-7.5 2.2,-8.1 9,-13.3 17.2,-13.3 8.1,0 9.7,5.1 9.7,13.4 v 27.1 c 0,5.7 2.7,8.4 8.4,8.4 h 12 v -11.6 h -5.8 c -1,0.2 -1.3,-0.2 -1.3,-1.3 z"
   id="path432" />
		<path
   fill="#000000"
   d="M 179.8,148.4 V 87.3 c 0,-5.7 -2.7,-8.4 -8.4,-8.4 h -12 v 11.6 h 5.8 c 1,0 1.4,0.4 1.4,1.4 v 14.5 c 0,0.2 0,0.4 0,0.6 -2.5,-2.8 -7.7,-6.6 -16.7,-6.6 -16.2,0 -27.2,12.6 -27.2,31.3 0,18.7 10.6,31.3 26.5,31.3 9.8,0 15.3,-4.8 17.9,-8.1 0.1,3.2 1.7,6.7 8.1,6.7 h 11.7 V 150 h -5.8 c -1,-0.1 -1.3,-0.5 -1.3,-1.6 z m -28.5,2.7 c -9.1,0 -15.2,-7.8 -15.2,-19.5 0,-11.5 6.3,-19.5 15.4,-19.5 10.5,0 15.3,10.1 15.3,19.4 0.1,14.4 -7.9,19.6 -15.5,19.6 z"
   id="path434" />
		<path
   fill="#000000"
   d="M 206.2,148.4 V 110 c 0,-5.7 -2.7,-8.4 -8.4,-8.4 h -11.9 v 11.6 h 5.8 c 1,0 1.4,0.4 1.4,1.4 V 153 c 0,5.7 2.7,8.4 8.4,8.4 h 11.9 v -11.6 h -5.8 c -1,0.1 -1.4,-0.3 -1.4,-1.4 z"
   id="path436" />
		<rect
   x="193.3"
   y="78.900002"
   fill="#000000"
   width="12.1"
   height="13.7"
   id="rect438" />
		<path
   fill="#000000"
   d="m 243.7,100.3 c -17.7,0 -30,12.9 -30,31.3 0,18.1 13.3,31.3 31.7,31.3 13.9,0 22.6,-8.4 23,-8.7 l 0.6,-0.6 -5.9,-9.8 -1,0.9 c -0.1,0.1 -6.7,6.4 -16.1,6.4 -8.5,0 -17.5,-5.3 -18.6,-17.1 h 41.8 l 0.1,-1 c 0,-0.1 0.3,-3.2 0.3,-4.7 0,-16.7 -10.4,-28 -25.9,-28 z m -0.1,11 c 6.9,0 11.7,4.9 12.4,12.5 h -28 c 1.8,-7.9 7.6,-12.5 15.6,-12.5 z"
   id="path440" />
		<path
   fill="#000000"
   d="M 416.7,98.5 V 86.8 c 0,-5.7 -2.2,-7.9 -7.9,-7.9 h -55.3 c -5.7,0 -7.9,2.2 -7.9,7.9 v 11.7 h 12.3 v -6.2 c 0,-1 0.4,-1.4 1.4,-1.4 h 15.1 v 70.6 H 388 V 90.9 h 15 c 1,0 1.4,0.4 1.4,1.4 v 6.2 z"
   id="path442" />
		<path
   fill="#000000"
   d="m 451.5,114.6 v -13.2 l -0.9,-0.1 c -0.1,0 -1.6,-0.2 -3.1,-0.2 -7.1,0 -13.4,4.1 -17.1,10.9 v -2.4 c 0,-5.3 -2.8,-7.8 -8.5,-7.8 h -11.6 v 11.6 h 5.8 c 1.1,0 1.4,0.4 1.4,1.4 v 46.7 h 13.2 v -24.7 c 0,-3.9 0.4,-7.2 1.3,-10 2.4,-7.8 8.3,-12.8 15.1,-12.8 1.7,0 3,0.3 3.1,0.3 z"
   id="path444" />
		<path
   fill="#000000"
   d="M 499.5,148.4 V 124 c 0,-15.9 -8.1,-23.6 -24.8,-23.6 -3.5,0 -21,0.6 -21,11.9 v 6.8 h 12.5 v -4.4 c 0,-2.4 5.1,-3.4 8.4,-3.4 8.5,0 11.6,3.2 11.7,12.2 h -1.4 c -23.1,0 -35.8,7.4 -35.8,20.8 0,12.2 10.4,18.6 20.7,18.6 9.3,0 14.6,-5 17.3,-8.6 0.1,3.4 1.7,7.2 8.2,7.2 h 11.5 V 149.9 H 501 c -1.1,0 -1.5,-0.4 -1.5,-1.5 z m -27.4,3.4 c -6.7,0 -9.7,-4.1 -9.7,-8.1 0,-8.8 11.9,-10 22.3,-10 h 1.8 v 0.9 c -0.1,8.1 -5.9,17.2 -14.4,17.2 z"
   id="path446" />
		<path
   fill="#000000"
   d="M 563.4,101.7 H 557 c -5.6,0 -7.9,1.6 -9.8,6.5 l -12.3,33.1 c -0.4,1.2 -0.8,2.5 -1.1,3.7 -0.3,-1.2 -0.7,-2.6 -1.1,-3.7 l -12.4,-33.1 c -1.9,-5 -4.2,-6.5 -9.8,-6.5 h -6.8 v 11.6 h 2.2 c 1.5,0 2,0.4 2.5,1.6 l 18,46.6 h 14.2 l 17.8,-46.6 c 0.5,-1.2 1.2,-1.6 2.8,-1.6 h 2.2 z"
   id="path448" />
		<path
   fill="#000000"
   d="m 592.3,100.3 c -17.7,0 -30,12.9 -30,31.3 0,18.1 13.3,31.3 31.7,31.3 13.9,0 22.6,-8.4 23,-8.7 l 0.6,-0.6 -5.9,-9.8 -1,0.9 c -0.1,0.1 -6.7,6.4 -16.1,6.4 -8.5,0 -17.5,-5.3 -18.6,-17.1 h 41.8 l 0.1,-1 c 0,-0.1 0.3,-3.2 0.3,-4.7 0,-16.7 -10.4,-28 -25.9,-28 z m -0.1,11 c 6.9,0 11.7,4.9 12.4,12.5 h -28 c 1.8,-7.9 7.6,-12.5 15.6,-12.5 z"
   id="path450" />
		<path
   fill="#000000"
   d="M 640.3,148.4 V 87.3 c 0,-5.7 -2.7,-8.4 -8.4,-8.4 h -12 v 11.6 h 5.8 c 1.1,0 1.4,0.4 1.4,1.4 V 153 c 0,5.7 2.7,8.4 8.4,8.4 h 12 v -11.6 h -5.8 c -1,0.1 -1.4,-0.3 -1.4,-1.4 z"
   id="path452" />
		<path
   fill="#000000"
   d="M 667.4,148.4 V 87.3 c 0,-5.7 -2.7,-8.4 -8.4,-8.4 h -12 v 11.6 h 5.8 c 1.1,0 1.4,0.4 1.4,1.4 V 153 c 0,5.7 2.7,8.4 8.4,8.4 h 12 v -11.6 h -5.8 c -1,0.1 -1.4,-0.3 -1.4,-1.4 z"
   id="path454" />
		<path
   fill="#000000"
   d="m 705.9,100.3 c -17.7,0 -30,12.9 -30,31.3 0,18.1 13.3,31.3 31.7,31.3 13.9,0 22.6,-8.4 23,-8.7 l 0.6,-0.6 -5.9,-9.8 -1,0.9 c -0.1,0.1 -6.7,6.4 -16.1,6.4 -8.5,0 -17.5,-5.3 -18.6,-17.1 h 41.8 l 0.1,-1 c 0,-0.1 0.3,-3.2 0.3,-4.7 0,-16.7 -10.4,-28 -25.9,-28 z m -0.1,11 c 6.9,0 11.7,4.9 12.4,12.5 h -28 c 1.9,-7.9 7.6,-12.5 15.6,-12.5 z"
   id="path456" />
		<path
   fill="#000000"
   d="m 774.1,101.2 c -0.1,0 -1.6,-0.2 -3.1,-0.2 -7.1,0 -13.4,4.1 -17.1,10.9 v -2.4 c 0,-5.3 -2.8,-7.8 -8.5,-7.8 h -11.6 v 11.6 h 5.8 c 1.1,0 1.4,0.4 1.4,1.4 v 46.7 h 13.2 v -24.7 c 0,-3.9 0.4,-7.2 1.3,-10 2.4,-7.8 8.3,-12.8 15.1,-12.8 1.7,0 3,0.3 3.1,0.3 l 1.3,0.3 v -13.2 z"
   id="path458" />
	</g>
	<g
   id="g490">
		<g
   id="g474">
			<path
   fill-rule="evenodd"
   clip-rule="evenodd"
   fill="#000000"
   d="m 359,152.7 c 0.4,8.6 -2.9,14.2 -7.4,21.2 -4.7,7.3 -9.7,14.4 -14.6,21.6 -3,4.4 -4.6,9.3 -5.4,14.5 -1.2,7.5 -3.9,13.7 -11.3,16.3 -9,3.1 -16.6,-5.3 -16,-12.1 0.5,-6 2.9,-11.4 6,-16.5 4.1,-6.5 6.6,-13.5 7.5,-21.1 0.6,-5 -5.3,-24.3 -4.4,-28.9 1.9,-10.1 5.1,-13.9 15.2,-16.9 11.4,-2.3 26,3.3 29.1,15.7 0.7,1.9 1,4.3 1.3,6.2 z"
   id="path462" />
			<path
   fill-rule="evenodd"
   clip-rule="evenodd"
   fill="#000000"
   d="m 332.9,117 c -0.2,6.9 -3.9,12.4 -8.4,12.3 -4.5,-0.1 -8,-5.8 -7.9,-12.6 0.2,-6.9 3.9,-12.4 8.4,-12.3 4.6,0 8.1,5.7 7.9,12.6 z"
   id="path464" />
			<path
   fill-rule="evenodd"
   clip-rule="evenodd"
   fill="#000000"
   d="m 346.2,117.5 c -0.1,4.9 -2.8,8.9 -6.1,8.8 -3.2,-0.1 -5.8,-4.1 -5.7,-9.1 0.1,-4.9 2.8,-8.9 6.1,-8.8 3.3,0.1 5.8,4.1 5.7,9.1 z"
   id="path466" />
			<path
   fill-rule="evenodd"
   clip-rule="evenodd"
   fill="#000000"
   d="m 356.7,123.9 c -0.1,4.1 -2.4,7.5 -5.1,7.4 -2.7,-0.1 -4.9,-3.5 -4.8,-7.6 0.1,-4.2 2.4,-7.5 5.1,-7.4 2.7,0.1 4.9,3.5 4.8,7.6 z"
   id="path468" />
			<path
   fill-rule="evenodd"
   clip-rule="evenodd"
   fill="#000000"
   d="m 364,133.3 c -0.1,3.7 -2.1,6.6 -4.5,6.6 -2.4,-0.1 -4.3,-3.1 -4.2,-6.8 0.1,-3.7 2.1,-6.6 4.5,-6.6 2.4,0.1 4.3,3.1 4.2,6.8 z"
   id="path470" />
			<path
   fill-rule="evenodd"
   clip-rule="evenodd"
   fill="#000000"
   d="m 367.9,145.3 c -0.1,3.3 -1.9,6 -4.1,5.9 -2.2,0 -3.9,-2.8 -3.8,-6.1 0.1,-3.3 1.9,-6 4.1,-5.9 2.2,0.1 3.9,2.8 3.8,6.1 z"
   id="path472" />
		</g>
		<g
   id="g488">
			<path
   fill-rule="evenodd"
   clip-rule="evenodd"
   fill="#000000"
   d="m 265.2,60.9 c -2.7,8.2 -1,14.5 1.5,22.4 2.6,8.3 5.5,16.5 8.3,24.7 1.7,5 2,10.2 1.3,15.5 -0.9,7.5 0.1,14.3 6.6,18.7 7.8,5.4 17.4,-0.7 18.6,-7.4 1.1,-5.9 0.3,-11.8 -1.4,-17.5 -2.2,-7.3 -2.8,-14.7 -1.6,-22.3 0.7,-4.9 11.6,-22 12,-26.7 C 311.4,58 309.3,53.6 300.4,48 290,42.7 274.5,44.3 268.1,55.3 c -1.1,1.6 -2,3.8 -2.9,5.6 z"
   id="path476" />
			
				<ellipse
   transform="matrix(-0.9694,-0.2456,0.2456,-0.9694,597.5101,145.3963)"
   fill-rule="evenodd"
   clip-rule="evenodd"
   fill="#000000"
   cx="307.79999"
   cy="35.400002"
   rx="8.1999998"
   ry="12.5"
   id="ellipse478" />
			
				<ellipse
   transform="matrix(-0.9694,-0.2455,0.2455,-0.9694,568.5858,134.5023)"
   fill-rule="evenodd"
   clip-rule="evenodd"
   fill="#000000"
   cx="292.70001"
   cy="31.799999"
   rx="5.9000001"
   ry="9"
   id="ellipse480" />
			
				<ellipse
   transform="matrix(-0.9694,-0.2456,0.2456,-0.9694,542.7166,137.7083)"
   fill-rule="evenodd"
   clip-rule="evenodd"
   fill="#000000"
   cx="279.89999"
   cy="35"
   rx="4.9000001"
   ry="7.5"
   id="ellipse482" />
			<path
   fill-rule="evenodd"
   clip-rule="evenodd"
   fill="#000000"
   d="m 265.6,40.9 c -0.9,3.6 0.3,6.9 2.6,7.5 2.3,0.6 5,-1.8 5.9,-5.4 0.9,-3.6 -0.3,-6.9 -2.6,-7.5 -2.4,-0.6 -5,1.8 -5.9,5.4 z"
   id="path484" />
			
				<ellipse
   transform="matrix(-0.9693,-0.2458,0.2458,-0.9693,503.9196,167.6603)"
   fill-rule="evenodd"
   clip-rule="evenodd"
   fill="#000000"
   cx="262.39999"
   cy="52.400002"
   rx="3.9000001"
   ry="6"
   id="ellipse486" />
		</g>
	</g>
</g>
</svg>
